<?xml version="1.0" standalone="no"?>
<!DOCTYPE svg PUBLIC "-//W3C//DTD SVG 20010904//EN"
 "http://www.w3.org/TR/2001/REC-SVG-20010904/DTD/svg10.dtd">
<svg version="1.0" xmlns="http://www.w3.org/2000/svg"
 width="205.000000pt" height="200.000000pt" viewBox="0 0 205.000000 200.000000"
 preserveAspectRatio="xMidYMid meet">

<g transform="translate(0.000000,200.000000) scale(0.100000,-0.100000)"
fill="#000000" stroke="none">
<path d="M0 1000 l0 -1000 1025 0 1025 0 0 1000 0 1000 -1025 0 -1025 0 0
-1000z m1298 213 l3 -83 -88 0 -88 0 2 82 c1 46 2 84 3 86 0 2 37 2 83 0 l82
-3 3 -82z m-618 -384 c0 -11 4 -18 10 -14 5 3 18 -3 29 -14 18 -18 19 -18 24
-1 4 14 11 17 28 13 41 -10 49 -22 37 -49 -14 -30 -67 -35 -69 -6 -1 16 -2 16
-6 0 -2 -10 -13 -18 -22 -18 -14 0 -17 6 -13 26 3 19 1 25 -7 20 -6 -4 -11
-16 -11 -27 0 -10 -4 -19 -10 -19 -5 0 -10 18 -10 41 0 24 -4 38 -10 34 -5 -3
-10 -22 -10 -41 0 -24 -5 -34 -15 -34 -10 0 -15 10 -15 34 0 19 -4 38 -10 41
-20 13 -9 24 28 28 20 2 40 4 45 5 4 1 7 -7 7 -19z m238 -1 c14 -14 -2 -48
-23 -48 -8 0 -14 -3 -14 -7 3 -19 -2 -33 -11 -33 -5 0 -10 23 -10 50 0 46 2
50 23 50 13 0 28 -5 35 -12z m472 -12 c0 -24 1 -24 31 -9 28 14 32 14 46 0 10
-10 13 -24 9 -41 -9 -35 -62 -37 -77 -3 l-10 22 5 -22 c4 -20 0 -23 -28 -23
-18 0 -37 5 -44 12 -9 9 -12 9 -12 0 0 -7 -7 -12 -15 -12 -9 0 -15 9 -15 25 0
14 -4 25 -10 25 -5 0 -10 -11 -10 -25 0 -23 -3 -25 -50 -25 -27 0 -50 5 -50
10 0 6 -7 6 -19 -1 -31 -20 -50 -5 -42 33 4 18 10 32 14 31 4 -2 12 -3 18 -3
6 0 9 -7 5 -15 -8 -21 11 -19 23 3 9 17 53 23 67 9 3 -3 16 -2 28 2 23 9 47 4
58 -13 5 -8 8 -7 8 2 0 6 9 12 20 12 11 0 23 7 26 15 9 23 24 18 24 -9z m-380
-32 c0 -8 -11 -15 -27 -15 -24 -2 -25 -2 -5 -6 32 -6 27 -23 -8 -23 -35 0 -56
29 -37 53 24 31 77 24 77 -9z m67 22 c14 -13 12 -66 -3 -66 -8 0 -14 10 -14
25 0 14 -4 25 -10 25 -5 0 -10 -11 -10 -25 0 -14 -6 -25 -13 -25 -9 0 -11 12
-9 38 3 32 7 37 28 37 13 -1 27 -5 31 -9z m-753 -145 c17 -15 18 -15 15 1 -2
9 -1 17 4 17 22 2 26 0 21 -12 -6 -17 57 -10 68 7 5 8 11 7 20 -2 16 -16 58
-15 58 2 0 9 8 12 25 8 14 -2 25 -8 25 -13 0 -5 11 -9 24 -9 27 0 41 -27 31
-60 -5 -15 -15 -20 -41 -20 -34 0 -34 0 -36 48 l-2 47 -3 -47 c-4 -52 -23 -67
-23 -18 0 22 -4 28 -15 24 -8 -4 -15 -17 -15 -30 0 -33 -20 -30 -21 4 l-2 27
-4 -27 c-5 -35 -23 -37 -23 -4 0 14 -4 28 -10 31 -6 4 -7 -6 -4 -24 6 -31 6
-31 -35 -29 -39 1 -41 3 -41 32 l-1 31 -14 -32 c-11 -27 -20 -33 -45 -33 -30
0 -30 1 -30 54 0 53 0 53 28 48 15 -2 35 -12 46 -21z m412 -19 c-5 -15 -5 -15
8 1 26 34 81 12 74 -30 -6 -36 -51 -45 -74 -15 -13 16 -13 16 -14 0 0 -10 -6
-18 -14 -18 -9 0 -12 9 -8 28 3 15 1 23 -4 19 -5 -5 -10 -13 -10 -18 -1 -5 -2
-14 -3 -20 0 -6 -13 -9 -28 -7 -24 3 -28 8 -31 41 -2 21 1 37 7 37 6 0 11 -11
11 -25 0 -14 5 -25 10 -25 6 0 10 12 10 26 0 18 4 24 13 21 7 -3 19 4 26 16
12 19 14 19 23 3 5 -9 7 -25 4 -34z m164 -11 l0 -58 -32 6 c-30 6 -33 10 -33
41 0 27 5 36 20 38 11 3 24 10 28 18 14 24 17 16 17 -45z m112 34 c-2 -5 -9
-9 -15 -7 -6 2 -3 -6 7 -17 24 -27 17 -56 -13 -56 -14 0 -26 6 -28 13 -3 6 3
12 13 12 16 0 16 1 -1 20 -22 25 -13 52 17 48 13 -2 21 -7 20 -13z m240 -12
c-5 -28 -5 -28 16 -10 11 10 31 17 44 15 26 -3 27 -23 0 -23 -9 0 -17 -7 -17
-15 0 -8 8 -15 17 -15 27 0 26 -20 0 -23 -13 -2 -32 4 -43 14 -17 16 -19 16
-19 1 0 -10 -4 -17 -10 -17 -5 0 -10 11 -10 25 0 35 -13 31 -29 -7 l-13 -33
-16 36 c-18 38 -42 41 -42 5 0 -21 -5 -23 -47 -22 -48 1 -48 1 -48 36 0 30 4
36 24 38 15 3 30 -3 38 -14 12 -16 13 -16 13 -1 0 22 58 24 66 2 8 -20 24 -19
24 1 0 10 6 14 15 10 9 -3 15 0 15 9 0 8 6 15 14 15 9 0 12 -8 8 -27z m368 12
c-3 -5 -15 -9 -26 -7 -12 1 -27 -5 -35 -14 -11 -14 -11 -18 4 -29 10 -7 27
-10 39 -7 15 3 19 1 16 -9 -6 -18 -55 -24 -74 -8 -15 12 -18 46 -8 74 5 12 17
15 48 13 23 -2 39 -7 36 -13z m218 -37 c-3 -52 -3 -53 -33 -49 -32 3 -45 16
-45 43 0 20 28 50 41 43 5 -4 9 -1 9 4 0 6 7 11 16 11 12 0 14 -10 12 -52z
m-417 11 c5 -11 7 -24 4 -29 -3 -6 -1 -10 6 -10 7 0 9 9 6 22 -9 31 10 50 35
37 15 -8 17 -14 8 -24 -8 -9 -8 -14 0 -17 6 -2 8 -11 5 -20 -5 -13 -19 -16
-67 -15 -52 2 -62 5 -69 23 -18 50 47 79 72 33z m290 9 c0 -10 2 -10 6 0 6 14
43 16 43 2 0 -5 -4 -10 -10 -10 -5 0 -10 -13 -10 -29 0 -32 -17 -41 -68 -33
-33 4 -51 35 -38 67 7 19 76 21 77 3z"/>
<path d="M1150 1210 l0 -60 60 0 60 0 0 60 0 60 -60 0 -60 0 0 -60z m100 0 l0
-40 -40 0 -40 0 0 40 0 40 40 0 40 0 0 -40z"/>
<path d="M768 763 c6 -2 18 -2 25 0 6 3 1 5 -13 5 -14 0 -19 -2 -12 -5z"/>
<path d="M1175 781 c-7 -12 12 -24 25 -16 11 7 4 25 -10 25 -5 0 -11 -4 -15
-9z"/>
<path d="M1232 770 c0 -14 2 -19 5 -12 2 6 2 18 0 25 -3 6 -5 1 -5 -13z"/>
<path d="M1345 779 c-4 -6 -5 -13 -2 -16 7 -7 27 6 27 18 0 12 -17 12 -25 -2z"/>
<path d="M1426 782 c-3 -6 -1 -14 5 -17 15 -10 25 3 12 16 -7 7 -13 7 -17 1z"/>
<path d="M270 635 c0 -15 6 -25 14 -25 19 0 27 25 13 39 -18 18 -27 13 -27
-14z"/>
<path d="M360 619 c0 -11 4 -18 10 -14 5 3 7 12 3 20 -7 21 -13 19 -13 -6z"/>
<path d="M565 630 c-10 -16 7 -31 23 -21 10 6 10 10 -2 20 -10 9 -16 9 -21 1z"/>
<path d="M852 619 c2 -6 8 -10 13 -10 5 0 11 4 13 10 2 6 -4 11 -13 11 -9 0
-15 -5 -13 -11z"/>
<path d="M1786 633 c-11 -11 -6 -23 9 -23 8 0 15 4 15 9 0 13 -16 22 -24 14z"/>
<path d="M1662 621 c2 -7 7 -12 11 -12 12 1 9 15 -3 20 -7 2 -11 -2 -8 -8z"/>
<path d="M1711 614 c0 -11 3 -14 6 -6 3 7 2 16 -1 19 -3 4 -6 -2 -5 -13z"/>
</g>
</svg>
